<?xml version="1.0" encoding="UTF-8" standalone="no"?>
<!DOCTYPE svg PUBLIC "-//W3C//DTD SVG 1.1//EN"
 "http://www.w3.org/Graphics/SVG/1.1/DTD/svg11.dtd">
<!-- Generated by graphviz version 2.40.1 (20161225.0304)
 -->
<!-- Title: G Pages: 1 -->
<svg width="180pt" height="165pt"
 viewBox="0.00 0.00 180.42 165.00" xmlns="http://www.w3.org/2000/svg" xmlns:xlink="http://www.w3.org/1999/xlink">
<g id="graph0" class="graph" transform="scale(1 1) rotate(0) translate(4 161)">
<title>G</title>
<polygon fill="#ffffff" stroke="transparent" points="-4,4 -4,-161 176.415,-161 176.415,4 -4,4"/>
<g id="clust1" class="cluster">
<title>cluster_Global</title>
<path fill="none" stroke="#c0c0c0" d="M20,-8C20,-8 152.415,-8 152.415,-8 158.415,-8 164.415,-14 164.415,-20 164.415,-20 164.415,-137 164.415,-137 164.415,-143 158.415,-149 152.415,-149 152.415,-149 20,-149 20,-149 14,-149 8,-143 8,-137 8,-137 8,-20 8,-20 8,-14 14,-8 20,-8"/>
<text text-anchor="middle" x="86.2075" y="-136.2" font-family="Times,serif" font-size="11.00" fill="#c0c0c0">Global</text>
</g>
<g id="clust2" class="cluster">
<title>cluster_\RKD</title>
<path fill="none" stroke="#c0c0c0" d="M28,-16C28,-16 144.415,-16 144.415,-16 150.415,-16 156.415,-22 156.415,-28 156.415,-28 156.415,-110 156.415,-110 156.415,-116 150.415,-122 144.415,-122 144.415,-122 28,-122 28,-122 22,-122 16,-116 16,-110 16,-110 16,-28 16,-28 16,-22 22,-16 28,-16"/>
<text text-anchor="middle" x="86.2075" y="-109.2" font-family="Times,serif" font-size="11.00" fill="#c0c0c0">RKD</text>
</g>
<g id="clust3" class="cluster">
<title>cluster_\RKD\PersonalIdCode</title>
<path fill="none" stroke="#c0c0c0" d="M36,-24C36,-24 136.415,-24 136.415,-24 142.415,-24 148.415,-30 148.415,-36 148.415,-36 148.415,-83 148.415,-83 148.415,-89 142.415,-95 136.415,-95 136.415,-95 36,-95 36,-95 30,-95 24,-89 24,-83 24,-83 24,-36 24,-36 24,-30 30,-24 36,-24"/>
<text text-anchor="middle" x="86.2075" y="-82.2" font-family="Times,serif" font-size="11.00" fill="#c0c0c0">PersonalIdCode</text>
</g>
<!-- \\RKD\\PersonalIdCode\\PersonalIdCode -->
<g id="node1" class="node">
<title>\\RKD\\PersonalIdCode\\PersonalIdCode</title>
<polygon fill="none" stroke="#000000" points="140.6234,-68 31.7917,-68 31.7917,-32 140.6234,-32 140.6234,-68"/>
<text text-anchor="middle" x="86.2075" y="-46.7" font-family="Courier,monospace" font-size="11.00" fill="#000000">PersonalIdCode</text>
</g>
</g>
</svg>
